<?xml version="1.0" encoding="UTF-8" standalone="no"?>
<!DOCTYPE svg PUBLIC "-//W3C//DTD SVG 1.1//EN" "http://www.w3.org/Graphics/SVG/1.1/DTD/svg11.dtd">
<svg width="100%" height="100%" viewBox="0 0 256 256" version="1.1" xmlns="http://www.w3.org/2000/svg" xmlns:xlink="http://www.w3.org/1999/xlink" xml:space="preserve" xmlns:serif="http://www.serif.com/" style="fill-rule:evenodd;clip-rule:evenodd;stroke-linejoin:round;stroke-miterlimit:2;">
    <g transform="matrix(0.88658,0,0,0.888889,-8.8658,-8.88889)">
        <rect x="10" y="10" width="288.75" height="288" style="fill:rgb(242,148,0);"/>
    </g>
    <g transform="matrix(1,0,0,1,-15.399,-13.046)">
        <path d="M217.704,191.621L238.765,191.621C232.172,205.002 222.055,215.483 208.41,223.064C192.788,231.765 173.737,236.116 151.26,236.116C129.507,236.116 110.72,232.44 94.9,225.091C79.08,217.74 67.313,206.898 59.601,192.561C51.888,178.224 48.033,162.619 48.033,145.743C48.033,127.221 52.416,109.967 61.183,93.981C69.949,77.997 81.947,65.999 97.174,57.99C112.401,49.98 129.803,45.976 149.381,45.976C165.992,45.976 180.757,49.206 193.678,55.665C206.597,62.126 216.469,71.305 223.291,83.202C230.114,95.101 233.525,108.104 233.525,122.21C233.525,139.019 228.349,154.214 218.001,167.792C205.015,184.932 188.371,193.5 168.068,193.5C162.596,193.5 158.477,192.545 155.709,190.633C152.94,188.722 151.094,185.921 150.172,182.229C142.393,189.743 133.428,193.5 123.277,193.5C112.334,193.5 103.255,189.728 96.036,182.179C88.818,174.632 85.21,164.596 85.21,152.071C85.21,136.582 89.561,122.442 98.262,109.653C108.807,94.096 122.321,86.318 138.801,86.318C150.533,86.318 159.202,90.801 164.806,99.765L167.278,88.789L191.212,99.64L178.451,159.684C177.527,164.168 177.067,167.068 177.067,168.385C177.067,170.034 177.446,171.27 178.204,172.093C178.962,172.918 179.868,173.329 180.924,173.329C184.088,173.329 188.174,171.418 193.185,167.594C199.909,162.586 205.346,155.863 209.499,147.424C213.652,138.986 215.728,130.253 215.728,121.221C215.728,105.005 209.86,91.444 198.127,80.533C186.394,69.624 170.012,64.169 148.985,64.169C131.121,64.169 115.975,67.812 103.55,75.095C91.124,82.379 81.764,92.63 75.469,105.846C69.174,119.063 66.027,132.824 66.027,147.127C66.027,161.036 69.537,173.692 76.557,185.096C83.577,196.5 93.431,204.822 106.121,210.062C118.809,215.303 133.327,217.923 149.677,217.923C165.431,217.923 178.977,215.731 190.315,211.348C201.651,206.963 210.782,200.388 217.704,191.621ZM110.817,150.982C110.817,159.355 112.513,165.517 115.91,169.472C119.304,173.427 123.506,175.405 128.516,175.405C132.274,175.405 135.799,174.483 139.096,172.636C141.6,171.319 144.072,169.242 146.512,166.407C150.005,162.386 153.021,156.518 155.559,148.806C158.096,141.093 159.366,133.91 159.366,127.25C159.366,119.802 157.636,114.084 154.176,110.095C150.715,106.108 146.347,104.114 141.074,104.114C135.404,104.114 130.163,106.306 125.352,110.689C120.539,115.074 116.914,121.318 114.476,129.426C112.036,137.535 110.817,144.722 110.817,150.982Z" style="fill:white;fill-rule:nonzero;"/>
    </g>
    <g transform="matrix(0.571793,0,0,0.571793,21.0748,21.0747)">
        <g transform="matrix(1.92799,0,0,1.92799,-53.4713,-100.377)">
            <circle cx="124.727" cy="149.055" r="60.04" style="fill:white;"/>
        </g>
        <g transform="matrix(1.08725,0,0,1.08725,-16.3155,-16.3155)">
            <path d="M120.393,242.921C151.335,279.728 206.311,284.529 243.186,253.644C260.984,238.738 271.312,218.242 273.755,196.887L256.789,190.723C255.788,209.293 247.379,227.419 231.981,240.316C202.481,265.023 158.5,261.183 133.747,231.737C108.994,202.292 112.841,158.392 142.341,133.684C171.841,108.977 215.822,112.818 240.575,142.263C247.969,151.059 252.811,161.144 255.18,171.622L273.904,178.425C272.247,161.574 265.656,145.028 253.929,131.079C222.987,94.272 168.011,89.471 131.136,120.356C94.262,151.24 89.452,206.115 120.393,242.921Z" style="fill:rgb(29,29,201);fill-rule:nonzero;"/>
        </g>
        <g transform="matrix(1.08725,0,0,1.08725,-16.3155,-16.3155)">
            <path d="M131.136,120.356C114.449,134.332 104.329,153.221 101.116,173.126L117.838,179.515C119.704,162.278 127.985,145.709 142.341,133.684C171.841,108.977 215.822,112.818 240.575,142.263L220.545,159.039L274,179.463C272.515,162.254 265.896,145.315 253.929,131.079C222.987,94.272 168.011,89.471 131.136,120.356Z" style="fill:rgb(29,29,201);fill-rule:nonzero;"/>
        </g>
        <g transform="matrix(1.08725,0,0,1.08725,-16.3155,-16.3155)">
            <path d="M161.013,187L143.582,187C143.582,211.024 163.093,230.499 187.161,230.499C211.229,230.499 230.741,211.024 230.741,187L213.309,187C213.309,201.415 201.602,213.099 187.161,213.099C172.72,213.099 161.013,201.415 161.013,187Z" style="fill:rgb(29,29,201);fill-rule:nonzero;"/>
        </g>
    </g>
</svg>
