<?xml version="1.0" encoding="UTF-8" standalone="no"?>
<!DOCTYPE svg PUBLIC "-//W3C//DTD SVG 1.1//EN" "http://www.w3.org/Graphics/SVG/1.1/DTD/svg11.dtd">
<svg width="100%" height="100%" viewBox="0 0 16 16" version="1.1" xmlns="http://www.w3.org/2000/svg" xmlns:xlink="http://www.w3.org/1999/xlink" xml:space="preserve" xmlns:serif="http://www.serif.com/" style="fill-rule:evenodd;clip-rule:evenodd;stroke-linejoin:round;stroke-miterlimit:2;">
    <g transform="matrix(1.06982,0,0,1.06982,-0.155767,-1.11715)">
        <g id="Body" transform="matrix(0.016503,0,0,0.016503,-0.264387,0.673756)">
            <g transform="matrix(2,0,0,2,0,0)">
                <path d="M284.56,123.823C289.035,124.552 312.817,132.499 314.599,130.885C319.777,135.345 321.434,142.89 321.504,149.461C330.583,163.715 343.953,179.346 341.956,181.227C334.097,185.586 326.444,190.283 318.513,194.526C312.095,196.944 314.133,201.216 311.808,208.142C307.415,221.226 299.305,246.971 293.065,258.874C295.724,259.963 298.272,261.748 300.74,263.233L314.924,271.794C318.754,274.086 322.893,275.982 326.634,278.384L322.741,283.729C317.218,290.367 307.931,302.304 303.52,309.912C302.503,311.386 301.483,312.829 300.343,314.21C297.055,312.689 293.891,310.745 290.645,309.106L268.409,297.983C266.015,296.768 260.233,293.374 257.994,292.855C247.708,286.461 234.412,283.462 225.503,275.138C222.784,272.596 221.161,269.165 218.617,266.474C219.716,262.146 209.734,255.025 222.107,231.831C226.339,221.548 229.634,210.804 233.493,200.37L244.006,171.367C245.523,167.079 247.247,162.84 248.526,158.474C243.272,158.443 237.747,158.247 232.564,157.389L232.564,154.071C233.415,145.925 234.534,137.334 234.212,129.155C234.141,128.139 234.159,127.158 234.212,126.142C235.005,125.938 243.738,125.916 245.24,125.843C256.769,125.28 273.607,123.124 284.56,123.823Z" style="fill:rgb(6,132,223);fill-rule:nonzero;"/>
            </g>
            <g transform="matrix(2,0,0,2,0,0)">
                <path d="M222.107,231.831C227.464,231.527 283.181,252.292 293.065,258.874C295.724,259.963 298.272,261.748 300.74,263.233L314.924,271.794C318.754,274.086 322.893,275.982 326.634,278.384L322.741,283.729C317.218,290.367 307.931,302.304 303.52,309.912C302.503,311.386 301.483,312.829 300.343,314.21C297.055,312.689 293.891,310.745 290.645,309.106L268.409,297.983C266.015,296.768 260.233,293.374 257.994,292.855C247.708,286.461 234.412,283.462 225.503,275.138C222.784,272.596 221.161,269.165 218.617,266.474C219.716,262.146 209.734,255.025 222.107,231.831Z" style="fill:rgb(32,106,180);fill-rule:nonzero;"/>
            </g>
            <g transform="matrix(2,0,0,2,0,0)">
                <path d="M234.212,126.142C234.348,127.012 234.382,128.246 234.884,128.978C241.293,129.751 247.81,130.11 254.246,130.699C264.944,131.679 267.873,133.219 278.122,130.271C295.555,125.256 306.943,147.238 292.673,157.958C284.557,164.055 259.702,159.518 248.526,158.474C243.272,158.443 237.747,158.247 232.564,157.389L232.564,154.071C233.415,145.925 234.534,137.334 234.212,129.155C234.141,128.139 234.159,127.158 234.212,126.142Z" style="fill:rgb(60,165,237);fill-rule:nonzero;"/>
            </g>
            <g transform="matrix(2,0,0,2,0,0)">
                <path d="M284.56,114.856C288.442,115.669 313.937,121.893 314.599,123.823C314.367,126.265 314.201,128.448 314.599,130.885C312.817,132.499 289.035,124.552 284.56,123.823C284.748,120.8 284.774,117.882 284.56,114.856Z" style="fill:rgb(243,168,67);fill-rule:nonzero;"/>
            </g>
            <g transform="matrix(2,0,0,2,0,0)">
                <path d="M303.52,309.912C307.931,302.304 317.218,290.367 322.741,283.729C333.11,289.274 352.532,298.14 355.75,308.941C359.764,322.413 351.692,328.67 343.421,337.51L330.957,351.091C321.176,361.816 311.761,373.474 301.349,383.551C297.871,387.292 289.064,398.656 284.56,399.757C280.743,395.249 267.9,385.682 262.879,382.026C265.628,381.028 275.371,368.801 278.046,365.726C279.53,363.248 281.752,361.059 283.618,358.845L293.342,347.229C298.436,341.197 311.462,323.929 317.309,319.693C313.244,315.666 307.776,313.709 303.52,309.912Z" style="fill:rgb(249,199,123);fill-rule:nonzero;"/>
            </g>
            <g transform="matrix(2,0,0,2,0,0)">
                <path d="M278.046,365.726C285.825,371.66 293.641,377.521 301.349,383.551C297.871,387.292 289.064,398.656 284.56,399.757C280.743,395.249 267.9,385.682 262.879,382.026C265.628,381.028 275.371,368.801 278.046,365.726Z" style="fill:rgb(213,213,213);fill-rule:nonzero;"/>
            </g>
            <g transform="matrix(2,0,0,2,0,0)">
                <path d="M194.609,319.693C204.285,326.044 216.485,332.485 225.527,339.076C222.945,344.241 219.596,349.055 216.495,353.919C206.701,369.281 206.791,368.89 190.591,377.834L172.376,387.889C162.073,393.644 151.886,399.943 141.334,405.213C138.404,406.792 119.969,418.015 118.069,417.811L117.65,417.448L117.472,417.947C117.2,417.274 117.579,416.484 117.27,415.721C116.392,413.548 104.014,395.343 101.98,393.022C109.135,389.507 117.279,384.081 124.65,380.097C131.822,375.557 175.613,350.797 177.488,348.558C179.746,345.862 181.494,342.218 183.284,339.181L194.609,319.693Z" style="fill:rgb(218,147,62);fill-rule:nonzero;"/>
            </g>
            <g transform="matrix(2,0,0,2,0,0)">
                <path d="M101.98,393.022C109.135,389.507 117.279,384.081 124.65,380.097C128.597,384.747 138.582,400.027 141.334,405.213C138.404,406.792 119.969,418.015 118.069,417.811L117.65,417.448L117.472,417.947C117.2,417.274 117.579,416.484 117.27,415.721C116.392,413.548 104.014,395.343 101.98,393.022Z" style="fill:rgb(213,213,213);fill-rule:nonzero;"/>
            </g>
            <g transform="matrix(2,0,0,2,0,0)">
                <path d="M218.617,266.474C221.161,269.165 222.784,272.596 225.503,275.138C234.412,283.462 247.708,286.461 257.994,292.855C250.806,304.767 243.928,316.85 236.635,328.713C234.181,332.705 231.984,337.376 229.067,341.019C227.869,340.396 226.689,339.764 225.527,339.076C216.485,332.485 204.285,326.044 194.609,319.693C193.337,318.692 191.792,317.951 190.472,316.967C200.245,300.372 208.915,283.107 218.617,266.474Z" style="fill:rgb(44,86,143);fill-rule:nonzero;"/>
            </g>
            <g transform="matrix(2,0,0,2,0,0)">
                <path d="M352.053,194.526C357.11,191.254 362.997,189.021 368.471,186.536L393.773,175.051C397.723,173.275 402.146,171.691 405.814,169.396C407.031,183.75 415.824,181.259 419.616,186.352C409.2,192.802 393.618,198.813 382.334,204.06L361.68,213.618C332.941,226.906 336.259,210.039 318.513,194.526C326.444,190.283 334.097,185.586 341.956,181.227C345.396,185.563 348.702,190.11 352.053,194.526Z" style="fill:rgb(218,147,62);fill-rule:nonzero;"/>
            </g>
            <g transform="matrix(2,0,0,2,0,0)">
                <path d="M202.978,128.169C213.383,127.736 223.815,129.406 234.212,129.155C234.534,137.334 233.415,145.925 232.564,154.071C226.004,154.511 219.42,153.328 212.836,153.457C209.468,157.66 206.971,162.681 204.084,167.233L185.638,196.332C179.619,193.342 172.685,189.141 167.11,185.394C171.286,179.101 175.147,172.564 179.096,166.126L191.234,146.561C193.638,142.635 200.328,130.592 202.978,128.169Z" style="fill:rgb(249,199,123);fill-rule:nonzero;"/>
            </g>
            <g transform="matrix(2,0,0,2,0,0)">
                <path d="M101.98,393.022C104.014,395.343 116.392,413.548 117.27,415.721C117.579,416.484 117.2,417.274 117.472,417.947C117.468,423.855 117,430.253 118.312,436.035C121.074,448.199 127.948,449.736 115.356,459.704C113.13,461.303 110.812,462.803 108.545,464.346C99.076,446.485 82.939,422.931 75.602,405.213C78.791,403.877 81.866,402.209 84.965,400.674C90.454,397.815 96.28,395.43 101.98,393.022Z" style="fill:rgb(32,106,180);fill-rule:nonzero;"/>
            </g>
            <g transform="matrix(2,0,0,2,0,0)">
                <path d="M75.602,405.213C78.791,403.877 81.866,402.209 84.965,400.674C87.474,404.633 89.49,408.932 91.6,413.111L111.673,452.147C112.927,454.6 114.417,457.118 115.356,459.704C113.13,461.303 110.812,462.803 108.545,464.346C99.076,446.485 82.939,422.931 75.602,405.213Z" style="fill:rgb(34,53,82);fill-rule:nonzero;"/>
            </g>
            <g transform="matrix(2,0,0,2,0,0)">
                <path d="M262.879,382.026C267.9,385.682 280.743,395.249 284.56,399.757C286.992,404.986 288.292,410.637 291.244,415.65C295.888,423.534 304.759,427.002 300.343,437.614C299.002,440.132 297.247,442.505 295.607,444.837C278.935,433.676 257.323,417.878 241.904,405.213C244.007,402.791 246.109,400.425 248.526,398.307C252.45,392.859 258.029,386.638 262.879,382.026Z" style="fill:rgb(6,132,223);fill-rule:nonzero;"/>
            </g>
            <g transform="matrix(2,0,0,2,0,0)">
                <path d="M248.526,398.307C258.409,407.007 273.285,417.422 284.299,425.443C289.259,429.056 296.226,433.242 300.343,437.614C299.002,440.132 297.247,442.505 295.607,444.837C278.935,433.676 257.323,417.878 241.904,405.213C244.007,402.791 246.109,400.425 248.526,398.307Z" style="fill:rgb(44,86,143);fill-rule:nonzero;"/>
            </g>
            <g transform="matrix(2,0,0,2,0,0)">
                <path d="M182.458,201.378C185.57,203.461 187.476,205.515 185.49,209.113C177.635,223.336 175.493,224.49 164.18,215.481C161.801,213.586 156.168,210.563 155.537,207.284C154.689,202.882 164.262,189.641 167.11,185.394C172.685,189.141 179.619,193.342 185.638,196.332C184.683,198.066 183.533,199.715 182.458,201.378Z" style="fill:rgb(243,168,67);fill-rule:nonzero;"/>
            </g>
            <g transform="matrix(2,0,0,2,0,0)">
                <path d="M408.345,165.164C400.96,163.269 408.07,151.634 414.235,160.184C418.092,157.662 421.375,155.734 425.322,159.017C437.687,169.301 440.726,175.762 424.982,184.64C423.271,185.604 421.341,185.57 419.616,186.352C415.824,181.259 407.031,183.75 405.814,169.396C406.787,168.142 407.547,166.546 408.345,165.164Z" style="fill:rgb(243,168,67);fill-rule:nonzero;"/>
            </g>
            <g transform="matrix(2,0,0,2,0,0)">
                <path d="M408.345,165.164C400.96,163.269 408.07,151.634 414.235,160.184C412.12,161.656 410.148,163.321 408.345,165.164Z" style="fill:rgb(249,199,123);fill-rule:nonzero;"/>
            </g>
        </g>
        <g id="Head" transform="matrix(0.0217987,0,0,0.0217987,9.89602,2.76633)">
            <g transform="matrix(1,0,0,1,-179,-179)">
                <path d="M120.393,242.921C151.335,279.728 206.311,284.529 243.186,253.644C260.984,238.738 271.312,218.242 273.755,196.887L256.789,190.723C255.788,209.293 247.379,227.419 231.981,240.316C202.481,265.023 158.5,261.183 133.747,231.737C108.994,202.292 112.841,158.392 142.341,133.684C171.841,108.977 215.822,112.818 240.575,142.263C247.969,151.059 252.811,161.144 255.18,171.622L273.904,178.425C272.247,161.574 265.656,145.028 253.929,131.079C222.987,94.272 168.011,89.471 131.136,120.356C94.262,151.24 89.452,206.115 120.393,242.921Z" style="fill:rgb(29,29,201);fill-rule:nonzero;"/>
            </g>
            <g transform="matrix(1,0,0,1,-179,-179)">
                <path d="M131.136,120.356C114.449,134.332 104.329,153.221 101.116,173.126L117.838,179.515C119.704,162.278 127.985,145.709 142.341,133.684C171.841,108.977 215.822,112.818 240.575,142.263L220.545,159.039L274,179.463C272.515,162.254 265.896,145.315 253.929,131.079C222.987,94.272 168.011,89.471 131.136,120.356Z" style="fill:rgb(29,29,201);fill-rule:nonzero;"/>
            </g>
            <g transform="matrix(1,0,0,1,-179,-179)">
                <path d="M161.013,187L143.582,187C143.582,211.024 163.093,230.499 187.161,230.499C211.229,230.499 230.741,211.024 230.741,187L213.309,187C213.309,201.415 201.602,213.099 187.161,213.099C172.72,213.099 161.013,201.415 161.013,187Z" style="fill:rgb(29,29,201);fill-rule:nonzero;"/>
            </g>
        </g>
    </g>
</svg>
